<?xml version="1.0" encoding="utf-8"?>
<!-- Generator: Adobe Illustrator 26.2.1, SVG Export Plug-In . SVG Version: 6.00 Build 0)  -->
<svg version="1.1" id="Layer_1" xmlns="http://www.w3.org/2000/svg" xmlns:xlink="http://www.w3.org/1999/xlink" x="0px" y="0px"
	 viewBox="0 0 559 897" style="enable-background:new 0 0 559 897;" xml:space="preserve">
<style type="text/css">
	.st0{fill:none;stroke:#000000;stroke-miterlimit:10;}
</style>
<image style="display:none;overflow:visible;" width="503" height="897" xlink:href="logo-s.png"  transform="matrix(1 0 0 1 37.707 0)">
</image>
<path class="st0" d="M90.7,0.8l204.1-0.1c0,0,75.4,4.7,129.7,39.7c15.7,11.5,29.7,22.7,39.6,38.5c44,70.4,38.8,68.5,44.4,135.2
	s-21.5,130.3-50.1,160c-28.6,29.7-43.7,35.4-43.7,35.4s72.8,34.6,99.4,101.3c26.6,66.6,22.6,96.4,22.6,96.4s6,97.5-28.2,147.2
	s-72.6,106.9-194.4,115.2c-122.3,1.2-223.1,0-223.1,0l-16.9-15.4V17.5L90.7,0.8z"/>
<path class="st0" d="M184.7,491.5h81.3c0,0,83.6-0.6,115.8,81.9c32.2,82.4,0,159-16.4,174.5c-18.1,12.7-59.8,20.6-59.8,20.6H184.7
	V491.5z"/>
<path class="st0" d="M184.7,466.1h113.8c0,0,52,4.8,77.1,31.9c25.7,22.3,38.7,45.5,46.9,91.2c8.2,50.3-3.1,89.8-15.8,113.8
	c-13.3,29.1-41.2,44.9-41.2,44.9s-40.3,20.6-59.8,20.6s-120.9,0-120.9,0V466.1z"/>
<path class="st0" d="M60.8,894.7L45,878.9V41.5l15.8-14.7h13.3v827.3L91,869.5h223.1c0,0,74.9-0.7,129.5-41.7
	c0,0-56.9,64.6-156,66.9C188.4,897,60.8,894.7,60.8,894.7z"/>
<path class="st0" d="M184.7,367.7V103.4h96.4c0,0,71.3-3.8,105,57.6c10,18.1,12.6,33.3,14.3,61.4c2.6,42.2-9.4,70-9.4,70
	s-10.9,36.8-47.8,57.6c-11.7,7.9-23.7,12.4-50.4,17.7C265.7,368,184.7,367.7,184.7,367.7z"/>
<path class="st0" d="M184.7,129h64.9c0,0,50.8-2.8,87.5,31.6s33.9,85.3,33.9,85.3l0.1,36.1c0,0-6.1,38.2-27.9,68
	c0,0,40.3-18.8,51.9-70.1c8.1-35.8,8.9-46.8-0.8-99.7c-9.7-52.9-80.2-72.9-80.2-72.9s-16.8-4-24.9-3.9c-8.1,0-104.5,0-104.5,0V129z"
	/>
</svg>
