<svg id="Layer_1" data-name="Layer 1" xmlns="http://www.w3.org/2000/svg" width="491.13" height="892.2" viewBox="0 0 491.13 892.2"><path d="M27.5,852.45V15.93L44.07.5H247s68.52,3.38,106.17,26S432.21,70.17,456.3,159c19.58,89.22-10.92,161.13-16.94,172.8s-26.73,50.45-70.78,76.8c0,0,55.34,24.09,84,73.79s36.89,76.42,38,143.43-17,103.88-19.22,109.54-29.74,67.77-89.6,102-122.69,31.26-122.69,31.26l-215.75.06ZM137.81,767V465.06H250.75s40.28,1.88,74.16,29S373.48,552.38,377.62,607s-10.17,108-57.23,138.16c-28.5,18.24-56.83,21.46-77.92,21.84S137.81,767,137.81,767ZM111.18,125.14v265H215.47s54.21-2.26,89.22-51.58,19.2-120.47,19.2-120.47-6.82-38.71-30.82-60.19c-18.76-16.66-27-24.52-73.75-32.76ZM.5,875.45V38.93L17.07,23.5H220s68.52,3.38,106.17,26S405.21,93.17,429.3,182c19.58,89.22-10.92,161.13-16.94,172.8s-26.73,50.45-70.78,76.8c0,0,55.34,24.09,84,73.79s36.89,76.42,38,143.43-17,103.88-19.22,109.54-29.74,67.77-89.6,102-122.69,31.26-122.69,31.26l-215.75.06ZM110.81,790V488.06H223.75s40.28,1.88,74.16,29S346.48,575.38,350.62,630s-10.17,108-57.23,138.16c-28.5,18.24-56.83,21.46-77.92,21.84S110.81,790,110.81,790Zm27.37-687.85v265H242.47s54.21-2.26,89.22-51.58,19.2-120.47,19.2-120.47-6.82-38.71-30.82-60.19c-18.76-16.66-27-24.52-73.75-32.76Z" fill="none" stroke="#000" stroke-miterlimit="10"/></svg>